<svg data-name="Layer 2" xmlns="http://www.w3.org/2000/svg" xmlns:xlink="http://www.w3.org/1999/xlink" viewBox="0 0 46.35 49"><defs><linearGradient id="a" data-name="New Gradient Swatch copy" x1="4.88" y1="29.6" x2="7.37" y2="26.78" gradientUnits="userSpaceOnUse"><stop offset="0" stop-color="#02a4a7"/><stop offset=".5" stop-color="#f5b60b"/><stop offset="1" stop-color="#d84800"/></linearGradient><linearGradient id="b" data-name="New Gradient Swatch copy" x1=".32" y1="44.17" x2="40.22" y2="-1.05" xlink:href="#a"/><linearGradient id="c" data-name="New Gradient Swatch copy" x1="2.11" y1="45.75" x2="42.01" y2=".52" xlink:href="#a"/><linearGradient id="d" data-name="New Gradient Swatch copy" x1="21.94" y1="63.25" x2="61.84" y2="18.02" xlink:href="#a"/><linearGradient id="e" data-name="New Gradient Swatch copy" x1="16.18" y1="58.17" x2="56.08" y2="12.94" xlink:href="#a"/><linearGradient id="f" data-name="New Gradient Swatch copy" x1="-1.67" y1="42.42" x2="38.24" y2="-2.81" xlink:href="#a"/><linearGradient id="g" data-name="New Gradient Swatch copy" x1="-4.42" y1="39.99" x2="35.48" y2="-5.24" xlink:href="#a"/><linearGradient id="h" data-name="New Gradient Swatch copy" x1="5.82" y1="49.03" x2="45.73" y2="3.8" xlink:href="#a"/><linearGradient id="i" data-name="New Gradient Swatch copy" x1="1.78" y1="45.46" x2="41.68" y2=".23" xlink:href="#a"/><linearGradient id="j" data-name="New Gradient Swatch copy" x1="17.06" y1="58.94" x2="56.96" y2="13.72" xlink:href="#a"/><linearGradient id="k" data-name="New Gradient Swatch copy" x1="10.13" y1="52.83" x2="50.04" y2="7.6" xlink:href="#a"/><linearGradient id="l" data-name="New Gradient Swatch copy" x1="9.64" y1="52.39" x2="49.54" y2="7.17" xlink:href="#a"/><linearGradient id="m" data-name="New Gradient Swatch copy" x1="4.84" y1="48.16" x2="44.75" y2="2.94" xlink:href="#a"/><linearGradient id="n" data-name="New Gradient Swatch copy" x1="13.93" y1="56.18" x2="53.84" y2="10.96" xlink:href="#a"/><linearGradient id="o" data-name="New Gradient Swatch copy" x1="10.6" y1="53.24" x2="50.5" y2="8.01" xlink:href="#a"/></defs><g data-name="Layer 1"><path d="M23.65 47.3c-1.27 0-2.57-.11-3.86-.32a.499.499 0 01-.41-.42l-.71-4.99c-1.45-.4-2.85-.98-4.15-1.72l-4.03 3.02c-.17.13-.41.13-.59 0a23.432 23.432 0 01-5.46-5.47.51.51 0 010-.59l3.02-4.03c-.74-1.3-1.31-2.7-1.72-4.15l-4.99-.71a.488.488 0 01-.42-.41c-.21-1.29-.32-2.59-.32-3.86s.11-2.58.32-3.86c.04-.22.21-.38.42-.41l4.99-.71c.4-1.45.98-2.85 1.72-4.15l-3.02-4.03a.495.495 0 010-.59A23.82 23.82 0 019.9 4.43a.51.51 0 01.59 0l4.03 3.02c1.3-.74 2.7-1.31 4.15-1.72l.71-4.99c.03-.22.2-.39.41-.42C21.08.11 22.38 0 23.65 0c.28 0 .5.22.5.5v14.09c0 .28-.22.5-.5.5-4.72 0-8.56 3.84-8.56 8.56s3.84 8.56 8.56 8.56c.28 0 .5.22.5.5V46.8c0 .28-.22.5-.5.5zm-3.34-1.25c.95.14 1.9.22 2.84.24v-13.1c-5.04-.26-9.06-4.44-9.06-9.54s4.02-9.29 9.06-9.55V1.01c-.94.02-1.89.1-2.84.24L19.6 6.2c-.03.2-.17.36-.37.41-1.59.41-3.1 1.04-4.51 1.87a.5.5 0 01-.55-.03l-4-3c-1.8 1.34-3.39 2.92-4.72 4.72l3 4a.5.5 0 01.03.55c-.83 1.4-1.45 2.92-1.86 4.5-.05.2-.21.34-.41.37l-4.95.71c-.17 1.12-.25 2.24-.25 3.34s.08 2.22.25 3.34l4.95.71c.2.03.36.17.41.37.41 1.59 1.04 3.1 1.86 4.51a.5.5 0 01-.03.55l-3 4c1.34 1.8 2.92 3.39 4.72 4.72l4-3a.5.5 0 01.55-.03c1.4.83 2.92 1.45 4.51 1.86.2.05.34.21.37.41l.71 4.95z" fill="url(#b)"/><path d="M23.65 33.21c-5.27 0-9.56-4.29-9.56-9.56s4.29-9.56 9.56-9.56c.28 0 .5.22.5.5v18.12c0 .28-.22.5-.5.5zm-.5-18.1c-4.49.26-8.06 3.99-8.06 8.54s3.57 8.28 8.06 8.54V15.1z" fill="url(#c)"/><path d="M37.17 49c-1.66 0-3.02-1.35-3.02-3.02s1.35-3.02 3.02-3.02 3.02 1.35 3.02 3.02S38.84 49 37.17 49zm0-5.03a2.02 2.02 0 10.002 4.042 2.02 2.02 0 00-.002-4.042z" fill="url(#d)"/><path d="M35.39 44.71c-.13 0-.26-.05-.36-.14l-2.23-2.23h-9.11c-.28 0-.5-.22-.5-.5s.22-.52.5-.52h9.32c.13 0 .26.05.35.15l2.38 2.38a.51.51 0 010 .72c-.09.09-.18.18-.36.15z" fill="url(#e)"/><path d="M30.94 8.48c-1.66 0-3.02-1.35-3.02-3.02s1.35-3.02 3.02-3.02 3.02 1.35 3.02 3.02-1.35 3.02-3.02 3.02zm0-5.03a2.02 2.02 0 10.002 4.042 2.02 2.02 0 00-.002-4.042z" fill="url(#f)"/><path d="M28.42 5.98h-4.77c-.28 0-.5-.22-.5-.5s.22-.52.5-.52h4.77c.28 0 .5.22.5.5v.02c0 .28-.22.5-.5.5z" fill="url(#g)"/><path d="M43.34 9.52c-1.66 0-3.02-1.35-3.02-3.02s1.35-3.02 3.02-3.02 3.02 1.35 3.02 3.02-1.35 3.02-3.02 3.02zm0-5.03a2.02 2.02 0 10.002 4.042 2.02 2.02 0 00-.002-4.042z" fill="url(#h)"/><path d="M37.11 13.25H23.65c-.28 0-.5-.22-.5-.5s.22-.52.5-.52H36.9l4.31-4.31c.1-.1.23-.14.37-.15.13 0 .26.06.35.15.09.09.15.21.15.35 0 .14-.05.27-.15.37l-4.46 4.46a.51.51 0 01-.35.15z" fill="url(#i)"/><path d="M41.33 34.46c-1.66 0-3.02-1.35-3.02-3.02s1.35-3.02 3.02-3.02 3.02 1.35 3.02 3.02-1.35 3.02-3.02 3.02zm0-5.03a2.02 2.02 0 10.002 4.042 2.02 2.02 0 00-.002-4.042z" fill="url(#j)"/><path d="M39.54 30.17a.47.47 0 01-.35-.15l-2.23-2.23H23.7c-.28 0-.5-.22-.5-.5s.22-.52.5-.52h13.48c.13 0 .26.05.35.15l2.38 2.38c.19.19.2.49.02.69l-.07.07a.51.51 0 01-.31.11z" fill="url(#k)"/><path d="M38.21 23.03c-1.66 0-3.02-1.35-3.02-3.02s1.35-3.02 3.02-3.02 3.02 1.35 3.02 3.02-1.35 3.02-3.02 3.02zm0-5.03a2.02 2.02 0 10.002 4.042A2.02 2.02 0 0038.21 18z" fill="url(#l)"/><path d="M35.69 20.52h-12c-.28 0-.5-.22-.5-.5s.22-.52.5-.52h12c.28 0 .5.22.5.5v.08h-.02c-.06.23-.25.44-.48.44z" fill="url(#m)"/><path d="M33.01 37.57c-1.66 0-3.02-1.35-3.02-3.02s1.35-3.02 3.02-3.02 3.02 1.35 3.02 3.02-1.35 3.02-3.02 3.02zm0-5.03a2.02 2.02 0 10.002 4.042 2.02 2.02 0 00-.002-4.042z" fill="url(#n)"/><path d="M30.5 35.07h-6.8c-.28 0-.5-.22-.5-.5s.22-.52.5-.52h6.8c.28 0 .5.22.5.5v.08h-.02c-.06.23-.25.44-.48.44z" fill="url(#o)"/></g></svg>