<svg data-name="Layer 2" xmlns="http://www.w3.org/2000/svg" xmlns:xlink="http://www.w3.org/1999/xlink" viewBox="0 0 39.46 51"><defs><linearGradient id="a" x1="-.05" y1="51.08" x2="38.34" y2="7.03" gradientUnits="userSpaceOnUse"><stop offset="0" stop-color="#00d8dd"/><stop offset=".5" stop-color="#ffce4a"/><stop offset="1" stop-color="#ff5400"/></linearGradient><linearGradient id="b" x1="-9.45" y1="42.89" x2="28.95" y2="-1.16" xlink:href="#a"/><linearGradient id="c" x1="-7.86" y1="44.28" x2="30.54" y2=".23" xlink:href="#a"/><linearGradient id="d" x1="-8.05" y1="44.11" x2="30.34" y2=".06" xlink:href="#a"/><linearGradient id="e" x1="0" y1="51.12" x2="38.4" y2="7.08" xlink:href="#a"/><linearGradient id="f" x1="2.47" y1="53.28" x2="40.87" y2="9.24" xlink:href="#a"/><linearGradient id="g" x1=".07" y1="51.19" x2="38.47" y2="7.14" xlink:href="#a"/><linearGradient id="h" x1="-.13" y1="51.01" x2="38.27" y2="6.97" xlink:href="#a"/><linearGradient id="i" x1="7.92" y1="58.03" x2="46.32" y2="13.99" xlink:href="#a"/><linearGradient id="j" x1="10.4" y1="60.19" x2="48.8" y2="16.15" xlink:href="#a"/></defs><g data-name="Layer 1"><path d="M35.12 51H4.35C1.95 51 0 49.05 0 46.65V10.12c0-2.4 1.95-4.35 4.35-4.35h8.22c.22 0 .41.14.48.35s-.02.44-.2.56c-1.25.83-2.01 1.86-2.19 2.93h18.15c-.18-1.07-.94-2.1-2.19-2.93a.495.495 0 01.28-.91h8.22c2.4 0 4.35 1.95 4.35 4.35v36.54c0 2.4-1.95 4.35-4.35 4.35zM4.35 6.77A3.35 3.35 0 001 10.12v36.54c0 1.85 1.5 3.35 3.35 3.35h30.77c1.85 0 3.35-1.5 3.35-3.35V10.12c0-1.85-1.5-3.35-3.35-3.35h-6.81c1 .99 1.54 2.15 1.54 3.35 0 .28-.22.5-.5.5H10.12c-.28 0-.5-.22-.5-.5 0-1.2.54-2.36 1.54-3.35H4.35z" fill="url(#a)"/><path d="M29.35 10.62H10.12c-.28 0-.5-.22-.5-.5 0-2.45 2.25-4.64 5.77-5.67v-.1c0-2.4 1.95-4.35 4.35-4.35s4.35 1.95 4.35 4.35v.1c3.52 1.03 5.77 3.22 5.77 5.67 0 .28-.22.5-.5.5zm-18.69-1h18.15c-.31-1.87-2.36-3.53-5.4-4.32-.24-.06-.4-.3-.37-.54l.02-.12c.01-.09.03-.19.03-.29 0-1.84-1.5-3.35-3.35-3.35s-3.35 1.5-3.35 3.35c0 .1.01.19.03.29l.02.12c.03.25-.13.48-.37.54-3.04.78-5.09 2.44-5.4 4.32z" fill="url(#b)"/><path d="M14.23 27.39h-6c-1.11 0-2.01-.9-2.01-2.01v-6c0-1.11.9-2.01 2.01-2.01h1.73c.28 0 .5.22.5.5s-.22.52-.5.52H8.23c-.55 0-.99.44-.99.99v6c0 .55.44.99.99.99h6c.55 0 .99-.44.99-.99v-1.73c0-.28.22-.5.5-.5s.52.22.52.5v1.73c0 1.11-.9 2.01-2.01 2.01z" fill="url(#c)"/><path d="M11.08 23.61a.5.5 0 01-.36-.16l-1.19-1.2c-.09-.09-.15-.22-.15-.35s.05-.26.15-.35c.2-.2.53-.21.72-.01l.84.84 4.29-4.29c.09-.09.23-.19.36-.15.13 0 .26.06.36.15.19.2.2.52 0 .71l-4.66 4.66a.51.51 0 01-.35.15z" fill="url(#d)"/><path d="M32.73 20.39h-11c-.28 0-.5-.22-.5-.5s.22-.52.5-.52h11c.28 0 .5.22.5.5s-.22.52-.5.52z" fill="url(#e)"/><path d="M32.73 25.39h-11c-.28 0-.5-.22-.5-.5s.22-.52.5-.52h11c.28 0 .5.22.5.5s-.22.52-.5.52z" fill="url(#f)"/><path d="M14.23 43.39h-6c-1.11 0-2.01-.9-2.01-2.01v-6c0-1.11.9-2.01 2.01-2.01h1.73c.28 0 .5.22.5.5s-.22.52-.5.52H8.23c-.55 0-.99.44-.99.99v6c0 .55.44.99.99.99h6c.55 0 .99-.44.99-.99v-1.73c0-.28.22-.5.5-.5s.52.22.52.5v1.73c0 1.11-.9 2.01-2.01 2.01z" fill="url(#g)"/><path d="M11.08 39.61a.5.5 0 01-.36-.16l-1.19-1.2c-.09-.09-.15-.22-.15-.35s.05-.26.15-.35c.2-.2.53-.21.72-.01l.84.84 4.29-4.29c.09-.09.23-.13.36-.15.13 0 .26.06.36.15.19.2.2.52 0 .71l-4.66 4.66a.51.51 0 01-.35.15z" fill="url(#h)"/><path d="M32.73 36.39h-11c-.28 0-.5-.22-.5-.5s.22-.52.5-.52h11c.28 0 .5.22.5.5s-.22.52-.5.52z" fill="url(#i)"/><path d="M32.73 41.39h-11c-.28 0-.5-.22-.5-.5s.22-.52.5-.52h11c.28 0 .5.22.5.5s-.22.52-.5.52z" fill="url(#j)"/></g></svg>